<svg width="130" height="130" viewBox="0 0 130 130" fill="none" xmlns="http://www.w3.org/2000/svg">
<path fill-rule="evenodd" clip-rule="evenodd" d="M54.1666 97.5002C30.2342 97.5002 10.8333 78.0992 10.8333 54.1668C10.8333 30.2345 30.2342 10.8335 54.1666 10.8335C78.0989 10.8335 97.4999 30.2345 97.4999 54.1668C97.4999 64.1807 94.1032 73.4012 88.3991 80.7391L117.58 109.92L109.92 117.58L80.7388 88.3994C73.401 94.1035 64.1804 97.5002 54.1666 97.5002ZM86.6665 54.1668C86.6665 72.1161 72.1157 86.6668 54.1665 86.6668C36.2172 86.6668 21.6665 72.1161 21.6665 54.1668C21.6665 36.2176 36.2172 21.6668 54.1665 21.6668C72.1157 21.6668 86.6665 36.2176 86.6665 54.1668Z" fill="currentcolor"/>
</svg>
