<svg width="57" height="57" viewBox="0 0 57 57" fill="none" xmlns="http://www.w3.org/2000/svg">
<g id="24 / basic / user">
<path id="icon" fill-rule="evenodd" clip-rule="evenodd" d="M28.5 54.625C14.0716 54.625 2.375 42.9284 2.375 28.5C2.375 14.0716 14.0716 2.375 28.5 2.375C42.9284 2.375 54.625 14.0716 54.625 28.5C54.625 42.9284 42.9284 54.625 28.5 54.625ZM46.0738 40.671C48.4705 37.217 49.875 33.0225 49.875 28.5C49.875 16.6949 40.3051 7.125 28.5 7.125C16.6949 7.125 7.125 16.6949 7.125 28.5C7.125 33.0225 8.52953 37.217 10.9262 40.671C13.5991 37.1404 19.8802 35.625 28.5 35.625C37.1198 35.625 43.4009 37.1404 46.0738 40.671ZM42.6661 44.5069C41.971 42.0075 36.9773 40.375 28.5 40.375C20.0227 40.375 15.029 42.0075 14.3339 44.5069C18.1053 47.8472 23.0659 49.875 28.5 49.875C33.9341 49.875 38.8947 47.8472 42.6661 44.5069ZM28.5 14.25C22.7504 14.25 19 18.4199 19 23.75C19 31.89 23.1821 35.625 28.5 35.625C33.768 35.625 38 32.0141 38 24.225C38 18.8137 34.2337 14.25 28.5 14.25ZM23.75 23.75C23.75 29.1395 25.6933 30.875 28.5 30.875C31.2971 30.875 33.25 29.2087 33.25 24.225C33.25 21.2572 31.3872 19 28.5 19C25.4926 19 23.75 20.9376 23.75 23.75Z" fill="#F4D58D"/>
</g>
</svg>
